<?xml version="1.0" standalone="no"?>
<!DOCTYPE svg PUBLIC "-//W3C//DTD SVG 20010904//EN"
 "http://www.w3.org/TR/2001/REC-SVG-20010904/DTD/svg10.dtd">
<svg version="1.0" xmlns="http://www.w3.org/2000/svg"
 width="960.000000pt" height="960.000000pt" viewBox="0 0 960.000000 960.000000"
 preserveAspectRatio="xMidYMid meet">
<metadata>
Created by potrace 1.14, written by Peter Selinger 2001-2017
</metadata>
<g transform="translate(0.000000,960.000000) scale(0.100000,-0.100000)"
fill="#000000" stroke="none">
<path d="M8606 8163 c-4 -5 -11 -8 -14 -9 -15 -1 -98 -26 -107 -32 -5 -4 -12
-7 -15 -8 -29 -5 -67 -19 -77 -27 -7 -5 -13 -7 -13 -4 0 3 -57 -14 -127 -39
-71 -25 -138 -47 -149 -50 -12 -2 -37 -11 -56 -19 -20 -8 -38 -11 -42 -8 -3 4
-6 0 -6 -7 0 -7 -2 -11 -6 -8 -3 3 -55 -12 -117 -34 -62 -21 -119 -41 -128
-43 -15 -3 -161 -51 -189 -62 -8 -3 -19 -7 -25 -9 -5 -1 -104 -34 -220 -74
-115 -39 -214 -72 -220 -74 -43 -12 -154 -48 -170 -55 -11 -5 -78 -28 -150
-51 -71 -23 -139 -45 -150 -50 -11 -5 -38 -14 -60 -20 -22 -6 -49 -15 -60 -20
-19 -8 -124 -43 -135 -45 -6 -1 -379 -124 -400 -132 -8 -3 -19 -7 -25 -9 -28
-8 -533 -177 -550 -184 -19 -8 -125 -43 -135 -45 -3 0 -30 -9 -60 -20 -30 -10
-59 -20 -65 -21 -11 -3 -301 -102 -325 -111 -8 -3 -20 -7 -26 -8 -13 -3 -162
-53 -184 -62 -8 -4 -17 -7 -20 -8 -4 -1 -99 -30 -130 -40 -3 -1 -12 -5 -20 -8
-39 -16 -326 -110 -337 -110 -7 0 -13 -4 -13 -9 0 -4 -7 -8 -15 -8 -8 0 -88
-25 -177 -56 -90 -30 -174 -57 -187 -60 -13 -3 -37 -12 -52 -20 -16 -8 -29
-12 -29 -9 0 2 -24 -5 -52 -16 -29 -12 -61 -22 -71 -24 -9 -2 -21 -6 -25 -9
-11 -6 -76 -15 -172 -22 -155 -11 -255 -20 -255 -23 0 -1 -39 -3 -86 -6 -47
-2 -110 -6 -140 -9 -30 -3 -85 -8 -124 -11 -38 -3 -90 -7 -115 -10 -25 -2 -79
-7 -120 -10 -41 -3 -95 -8 -120 -10 -25 -3 -83 -8 -130 -11 -47 -3 -107 -8
-135 -10 -76 -7 -132 -11 -225 -19 -47 -3 -101 -8 -120 -10 -19 -2 -71 -7
-115 -10 -44 -3 -96 -7 -115 -9 -19 -3 -75 -7 -125 -11 -49 -3 -106 -8 -125
-10 -70 -7 -216 -18 -252 -19 -38 -1 -38 -1 -39 -46 -1 -25 0 -49 1 -55 1 -5
1 -30 0 -55 -1 -25 -2 -52 -1 -60 0 -8 0 -40 0 -70 0 -30 0 -61 0 -67 2 -26 2
-50 2 -133 -1 -86 1 -116 10 -124 2 -2 45 -7 94 -11 50 -4 110 -9 135 -11 25
-3 68 -6 95 -8 49 -4 141 -12 240 -21 28 -3 79 -7 115 -10 36 -3 90 -7 120
-10 30 -3 87 -8 125 -11 39 -3 88 -7 110 -9 61 -5 196 -17 230 -20 17 -1 68
-6 115 -9 47 -4 108 -9 135 -11 95 -10 150 -15 235 -20 47 -3 96 -7 110 -10
14 -2 66 -7 115 -10 92 -7 207 -18 246 -24 5 -1 67 -162 74 -191 1 -3 7 -18
13 -33 7 -16 12 -32 12 -37 0 -4 7 -20 15 -36 8 -16 11 -32 7 -36 -4 -4 -32
-10 -62 -13 -94 -9 -134 -14 -165 -19 -16 -3 -55 -8 -86 -11 -31 -3 -66 -7
-78 -10 -13 -2 -49 -7 -80 -10 -31 -4 -67 -8 -81 -10 -37 -5 -110 -15 -150
-19 -57 -7 -130 -16 -205 -27 -38 -5 -93 -11 -120 -14 -28 -2 -64 -6 -80 -9
-17 -2 -52 -7 -80 -10 -27 -4 -61 -9 -75 -11 -14 -3 -51 -7 -83 -10 -32 -2
-61 -6 -65 -9 -4 -2 -43 -7 -87 -11 -44 -4 -82 -8 -85 -10 -3 -2 -32 -6 -65
-9 -83 -9 -132 -14 -185 -22 -25 -4 -61 -8 -80 -10 -19 -1 -35 -3 -35 -4 0 -1
-11 -3 -25 -4 -14 -2 -52 -6 -85 -10 -33 -4 -73 -9 -90 -11 -16 -2 -46 -6 -65
-9 -19 -3 -57 -8 -84 -11 -27 -3 -51 -6 -53 -8 -3 -4 -5 -30 -4 -102 0 -27 0
-59 0 -70 0 -11 0 -58 0 -105 0 -47 0 -89 -1 -95 0 -9 1 -140 1 -200 0 -11 0
-40 0 -65 0 -25 0 -52 0 -60 2 -68 0 -144 -5 -151 -3 -5 -2 -9 3 -9 4 0 8 -21
8 -47 0 -47 1 -48 30 -47 49 2 155 14 225 25 36 6 85 12 110 15 25 2 59 6 75
9 17 2 57 7 90 10 33 4 67 8 75 10 8 2 47 7 85 11 39 3 72 7 75 9 3 2 41 6 85
10 44 4 83 9 87 11 4 3 33 7 65 9 32 3 69 7 83 10 14 2 48 7 75 10 28 3 61 7
75 10 13 3 49 7 80 10 30 3 71 7 90 10 19 3 58 7 85 11 28 3 61 8 75 10 14 3
45 7 70 9 25 3 61 7 80 10 19 2 60 7 90 10 30 4 69 8 85 11 17 3 48 7 69 9 21
3 56 7 77 10 98 13 195 25 249 30 25 3 61 7 80 10 59 9 103 15 145 20 22 2 63
7 90 10 28 4 59 7 69 8 14 2 24 -11 39 -48 10 -27 23 -59 27 -70 8 -19 22 -58
70 -190 11 -30 29 -80 40 -110 11 -30 29 -81 41 -112 11 -32 25 -66 30 -75 5
-10 9 -26 9 -36 0 -10 4 -22 9 -27 5 -6 18 -39 30 -75 12 -36 26 -74 31 -85 5
-11 16 -38 23 -60 23 -67 107 -298 122 -335 7 -19 25 -69 40 -110 15 -41 30
-84 35 -95 5 -11 37 -97 71 -192 60 -166 63 -171 93 -177 29 -6 50 -10 93 -20
69 -15 312 -69 328 -72 11 -2 70 -15 130 -28 61 -14 121 -27 135 -30 14 -2 32
-7 40 -10 8 -3 31 -7 50 -10 19 -3 60 -12 90 -20 45 -11 121 -27 132 -27 2 0
21 -4 43 -10 22 -5 49 -12 60 -14 11 -3 61 -14 110 -25 50 -11 99 -22 110 -25
30 -5 70 -14 144 -31 36 -8 80 -17 96 -20 17 -3 48 -10 70 -16 22 -6 49 -12
60 -13 11 -2 52 -11 90 -19 39 -9 83 -19 99 -22 16 -2 32 -7 36 -9 4 -2 22 -7
41 -10 19 -3 41 -8 49 -10 8 -2 26 -6 40 -9 14 -2 97 -20 185 -40 88 -19 171
-37 185 -40 14 -2 52 -11 85 -19 33 -9 74 -18 90 -21 37 -6 71 -14 93 -20 9
-3 31 -8 47 -11 47 -8 75 -14 93 -19 9 -3 28 -7 42 -10 14 -3 66 -14 115 -26
50 -11 103 -23 119 -26 25 -5 110 -23 181 -39 24 -6 62 -14 90 -19 18 -4 97
-22 210 -47 22 -5 51 -11 65 -14 14 -3 43 -9 65 -14 93 -22 141 -33 160 -37
11 -2 54 -11 95 -21 41 -9 79 -16 84 -15 4 2 14 -2 20 -8 7 -5 15 -8 18 -5 2
3 20 0 39 -5 19 -6 49 -13 68 -16 50 -8 64 -12 84 -19 15 -6 17 0 18 46 1 30
0 59 -1 64 -1 6 -1 30 0 55 1 25 1 52 1 60 0 8 0 40 0 70 0 30 0 62 0 70 -1
40 -2 208 0 216 6 36 -16 59 -66 68 -5 1 -16 5 -22 9 -7 5 -13 6 -13 2 0 -3
-13 1 -30 10 -16 8 -33 16 -37 16 -10 2 -11 2 -130 43 -57 19 -103 32 -103 29
0 -3 -6 -1 -12 4 -7 6 -65 27 -128 48 -63 21 -119 40 -125 44 -5 3 -15 6 -20
7 -6 1 -74 23 -150 49 -77 26 -277 95 -445 152 -168 57 -312 106 -320 108 -18
5 -308 104 -330 112 -8 4 -18 7 -22 8 -5 2 -10 4 -13 5 -3 1 -8 3 -12 4 -5 1
-33 10 -63 21 -30 10 -59 20 -65 21 -27 7 -222 76 -238 85 -11 6 -21 8 -24 5
-3 -3 -19 2 -35 10 -17 9 -42 18 -56 20 -13 3 -37 11 -53 19 -15 8 -36 15 -47
15 -10 0 -21 2 -24 5 -3 4 -124 46 -269 96 -145 49 -325 110 -399 135 -74 26
-139 47 -145 49 -17 4 -49 16 -67 26 -10 5 -26 9 -35 9 -10 0 -38 10 -63 21
-25 12 -54 22 -65 24 -31 5 -185 61 -195 71 -6 6 21 23 68 43 42 19 82 39 89
44 17 12 212 107 221 107 5 0 13 5 18 10 6 6 62 35 124 65 62 30 118 59 124
65 5 5 18 10 27 10 9 0 22 7 29 15 6 8 15 14 18 13 7 -1 121 53 172 82 14 8
28 14 31 15 11 0 84 40 87 48 2 4 8 7 14 7 16 0 662 323 670 335 4 5 8 7 8 3
0 -3 413 200 918 451 504 252 967 482 1027 512 61 29 112 56 115 59 3 3 17 11
33 17 24 11 27 18 28 60 1 27 0 53 -1 58 -1 6 -1 30 0 55 1 25 2 52 1 60 0 8
0 40 0 70 1 52 0 62 -2 93 -1 6 -1 59 0 117 0 58 0 112 0 120 0 8 0 35 0 60 0
25 0 52 0 60 -1 8 -1 40 0 70 0 30 1 63 0 73 0 9 0 51 0 92 1 158 1 202 0 265
0 36 0 72 0 80 0 8 0 78 0 155 0 77 0 146 0 153 1 6 1 18 2 25 0 6 0 39 0 72
0 63 0 68 0 150 0 28 0 55 0 60 0 40 -1 212 -2 265 0 36 0 71 0 78 0 6 0 67 0
135 0 67 1 138 1 157 1 19 2 42 1 50 -1 21 -1 150 0 158 1 4 0 12 -1 17 -1 6
-1 29 0 53 1 30 -2 42 -13 42 -7 0 -17 -3 -21 -7z"/>
</g>
</svg>
